<svg xmlns="http://www.w3.org/2000/svg" xmlns:xlink="http://www.w3.org/1999/xlink" width="500" zoomAndPan="magnify" viewBox="0 0 375 374.999991" height="500" preserveAspectRatio="xMidYMid meet" version="1.0"><defs><g/><clipPath id="188dbef3eb"><path d="M 99.003906 52.070312 L 276.003906 52.070312 L 276.003906 229.070312 L 99.003906 229.070312 Z M 99.003906 52.070312 " clip-rule="nonzero"/></clipPath></defs><g clip-path="url(#188dbef3eb)"><path fill="#8b5cf6" d="M 187.503906 61.386719 C 231.234375 61.386719 266.6875 96.835938 266.6875 140.570312 C 266.6875 153.113281 263.773438 164.964844 258.589844 175.492188 C 257.6875 177.332031 257.367188 179.464844 257.796875 181.566406 L 265.386719 218.558594 L 227.15625 211.40625 C 225.152344 211.03125 223.128906 211.332031 221.367188 212.167969 C 211.105469 217.03125 199.628906 219.753906 187.503906 219.753906 C 143.769531 219.753906 108.320312 184.300781 108.320312 140.570312 C 108.320312 96.835938 143.769531 61.386719 187.503906 61.386719 Z M 276.003906 140.570312 C 276.003906 91.691406 236.378906 52.070312 187.503906 52.070312 C 138.625 52.070312 99.003906 91.691406 99.003906 140.570312 C 99.003906 189.445312 138.625 229.070312 187.503906 229.070312 C 201.039062 229.070312 213.875 226.027344 225.355469 220.585938 C 225.410156 220.5625 225.4375 220.5625 225.445312 220.5625 L 263.675781 227.714844 C 270.179688 228.933594 275.84375 223.167969 274.515625 216.6875 L 266.921875 179.699219 C 266.921875 179.699219 266.921875 179.699219 266.921875 179.695312 C 266.921875 179.691406 266.921875 179.660156 266.949219 179.605469 C 272.746094 167.824219 276.003906 154.570312 276.003906 140.570312 Z M 276.003906 140.570312 " fill-opacity="1" fill-rule="evenodd"/></g><path fill="#8b5cf6" d="M 140.921875 135.910156 C 138.351562 135.910156 136.265625 137.996094 136.265625 140.570312 C 136.265625 143.140625 138.351562 145.226562 140.921875 145.226562 C 143.496094 145.226562 145.582031 143.140625 145.582031 140.570312 C 145.582031 137.996094 143.496094 135.910156 140.921875 135.910156 Z M 126.949219 140.570312 C 126.949219 132.851562 133.207031 126.597656 140.921875 126.597656 C 148.640625 126.597656 154.898438 132.851562 154.898438 140.570312 C 154.898438 148.289062 148.640625 154.542969 140.921875 154.542969 C 133.207031 154.542969 126.949219 148.289062 126.949219 140.570312 Z M 126.949219 140.570312 " fill-opacity="1" fill-rule="evenodd"/><path fill="#8b5cf6" d="M 187.503906 135.910156 C 184.929688 135.910156 182.84375 137.996094 182.84375 140.570312 C 182.84375 143.140625 184.929688 145.226562 187.503906 145.226562 C 190.074219 145.226562 192.160156 143.140625 192.160156 140.570312 C 192.160156 137.996094 190.074219 135.910156 187.503906 135.910156 Z M 173.527344 140.570312 C 173.527344 132.851562 179.785156 126.597656 187.503906 126.597656 C 195.21875 126.597656 201.476562 132.851562 201.476562 140.570312 C 201.476562 148.289062 195.21875 154.542969 187.503906 154.542969 C 179.785156 154.542969 173.527344 148.289062 173.527344 140.570312 Z M 173.527344 140.570312 " fill-opacity="1" fill-rule="evenodd"/><path fill="#8b5cf6" d="M 234.082031 135.910156 C 231.507812 135.910156 229.421875 137.996094 229.421875 140.570312 C 229.421875 143.140625 231.507812 145.226562 234.082031 145.226562 C 236.652344 145.226562 238.738281 143.140625 238.738281 140.570312 C 238.738281 137.996094 236.652344 135.910156 234.082031 135.910156 Z M 220.109375 140.570312 C 220.109375 132.851562 226.363281 126.597656 234.082031 126.597656 C 241.796875 126.597656 248.054688 132.851562 248.054688 140.570312 C 248.054688 148.289062 241.796875 154.542969 234.082031 154.542969 C 226.363281 154.542969 220.109375 148.289062 220.109375 140.570312 Z M 220.109375 140.570312 " fill-opacity="1" fill-rule="evenodd"/><g fill="#8b5cf6" fill-opacity="1"><g transform="translate(38.679166, 302.458928)"><g><path d="M 48.824219 -54.25 L 37.042969 -54.25 L 24.800781 -31.695312 L 12.632812 -54.25 L 0.773438 -54.25 L 19.683594 -20.613281 L 19.683594 0 L 29.992188 0 L 29.992188 -20.613281 Z M 48.824219 -54.25 "/></g></g></g><g fill="#8b5cf6" fill-opacity="1"><g transform="translate(88.268545, 302.458928)"><g><path d="M 36.269531 -14.957031 C 36.5 -16.121094 36.578125 -17.359375 36.578125 -18.675781 C 36.578125 -29.449219 29.992188 -37.898438 19.296875 -37.898438 C 8.523438 -37.898438 0.773438 -29.449219 0.773438 -18.675781 C 0.773438 -7.90625 8.914062 0.621094 19.683594 0.621094 C 26.503906 0.621094 32.007812 -2.789062 35.105469 -7.980469 L 26.582031 -12.167969 C 25.109375 -10.074219 22.707031 -8.835938 19.683594 -8.835938 C 15.421875 -8.835938 12.554688 -11.316406 11.390625 -14.957031 Z M 19.296875 -28.519531 C 23.636719 -28.519531 25.960938 -25.882812 26.8125 -22.164062 L 11.316406 -22.164062 C 12.246094 -25.882812 14.957031 -28.519531 19.296875 -28.519531 Z M 19.296875 -28.519531 "/></g></g></g><g fill="#8b5cf6" fill-opacity="1"><g transform="translate(127.165222, 302.458928)"><g><path d="M 2.710938 -58.125 L 2.710938 0 L 13.019531 0 L 13.019531 -58.125 Z M 2.710938 -58.125 "/></g></g></g><g fill="#8b5cf6" fill-opacity="1"><g transform="translate(144.05661, 302.458928)"><g><path d="M 3.488281 -27.976562 L 3.488281 -19.453125 L 29.140625 -19.453125 L 29.140625 -27.976562 Z M 3.488281 -27.976562 "/></g></g></g><g fill="#8b5cf6" fill-opacity="1"><g transform="translate(177.451965, 302.458928)"><g><path d="M 28.597656 -9.765625 C 18.753906 -9.765625 12.863281 -17.203125 12.863281 -27.046875 C 12.863281 -36.964844 18.753906 -44.40625 28.597656 -44.40625 C 34.5625 -44.40625 39.058594 -41.695312 41.773438 -37.355469 L 51.070312 -42.003906 C 46.652344 -49.753906 38.59375 -54.714844 28.597656 -54.714844 C 13.019531 -54.714844 2.324219 -42.625 2.324219 -27.046875 C 2.324219 -11.46875 13.019531 0.621094 28.597656 0.621094 C 38.59375 0.621094 46.652344 -4.417969 51.070312 -12.089844 L 41.773438 -16.738281 C 39.058594 -12.398438 34.5625 -9.765625 28.597656 -9.765625 Z M 28.597656 -9.765625 "/></g></g></g><g fill="#8b5cf6" fill-opacity="1"><g transform="translate(230.063189, 302.458928)"><g><path d="M 21.3125 -37.898438 C 17.824219 -37.898438 14.878906 -36.425781 12.632812 -34.097656 L 12.632812 -54.25 L 2.324219 -54.25 L 2.324219 0 L 12.632812 0 L 12.632812 -20.304688 C 12.632812 -25.808594 15.191406 -28.285156 18.832031 -28.285156 C 22.550781 -28.285156 24.878906 -26.117188 24.878906 -20.691406 L 24.878906 0 L 35.183594 0 L 35.183594 -20.304688 C 35.183594 -31.773438 29.914062 -37.898438 21.3125 -37.898438 Z M 21.3125 -37.898438 "/></g></g></g><g fill="#8b5cf6" fill-opacity="1"><g transform="translate(269.114827, 302.458928)"><g><path d="M 18.832031 -37.898438 C 9.53125 -37.898438 4.03125 -31.773438 3.332031 -26.890625 L 11.933594 -25.03125 C 12.554688 -27.898438 14.957031 -29.371094 18.132812 -29.449219 C 21.777344 -29.605469 24.179688 -27.28125 23.636719 -25.03125 C 23.171875 -22.941406 20.535156 -22.941406 14.257812 -21.542969 C 6.355469 -19.839844 0.773438 -16.972656 0.773438 -8.835938 C 1.085938 -3.175781 5.113281 0.621094 12.398438 0.621094 C 18.753906 0.621094 22.472656 -2.09375 23.871094 -3.488281 L 23.871094 0 L 34.097656 0 L 34.097656 -23.328125 C 34.097656 -34.175781 26.96875 -37.898438 18.832031 -37.898438 Z M 23.871094 -15.265625 C 23.558594 -11.160156 20.691406 -7.980469 16.664062 -7.363281 C 14.335938 -6.976562 12.011719 -7.441406 11.390625 -9.144531 C 10.695312 -11.003906 11.78125 -13.484375 15.578125 -14.492188 C 20.460938 -15.730469 23.871094 -16.429688 23.871094 -16.429688 Z M 23.871094 -15.265625 "/></g></g></g><g fill="#8b5cf6" fill-opacity="1"><g transform="translate(307.081697, 302.458928)"><g><path d="M 24.257812 -11.003906 C 23.25 -10.074219 21.3125 -9.453125 19.917969 -9.453125 C 16.664062 -9.453125 15.808594 -11.46875 15.808594 -14.800781 L 15.808594 -27.433594 L 24.488281 -27.433594 L 24.488281 -37.355469 L 15.808594 -37.355469 L 15.808594 -48.050781 L 5.503906 -45.722656 L 5.503906 -37.355469 L 0.386719 -37.355469 L 0.386719 -27.433594 L 5.503906 -27.433594 L 5.503906 -11.46875 C 5.503906 -3.71875 9.917969 0.386719 17.824219 0.386719 C 22.242188 0.386719 25.730469 -1.238281 27.667969 -3.101562 Z M 24.257812 -11.003906 "/></g></g></g></svg>